<mxfile host="app.diagrams.net" agent="Mozilla/5.0 (Windows NT 10.0; Win64; x64) AppleWebKit/537.36 (KHTML, like Gecko) Chrome/135.0.0.0 Safari/537.36" version="26.2.13" pages="2">
  <diagram name="Página-1" id="ZVCqdYX3GKkFBiJfxPmw">
    <mxGraphModel dx="1044" dy="562" grid="1" gridSize="10" guides="1" tooltips="1" connect="1" arrows="1" fold="1" page="1" pageScale="1" pageWidth="827" pageHeight="1169" math="0" shadow="0">
      <root>
        <mxCell id="0" />
        <mxCell id="1" parent="0" />
        <mxCell id="NEHOAQ5_KmDinnT5eEiS-1" value="Operadora" style="rounded=0;whiteSpace=wrap;html=1;align=center;fontFamily=Helvetica;fontColor=light-dark(#000000,#CC0000);" parent="1" vertex="1">
          <mxGeometry x="40" y="30" width="100" height="50" as="geometry" />
        </mxCell>
        <mxCell id="NEHOAQ5_KmDinnT5eEiS-3" value="OLT" style="rounded=0;whiteSpace=wrap;html=1;fontColor=light-dark(#000000,#CC0000);" parent="1" vertex="1">
          <mxGeometry x="40" y="120" width="100" height="50" as="geometry" />
        </mxCell>
        <mxCell id="NEHOAQ5_KmDinnT5eEiS-4" value="SPLITTER" style="rounded=0;whiteSpace=wrap;html=1;fontColor=light-dark(#000000,#CC0000);" parent="1" vertex="1">
          <mxGeometry x="320" y="120" width="100" height="50" as="geometry" />
        </mxCell>
        <mxCell id="NEHOAQ5_KmDinnT5eEiS-5" value="ONT na casa do cliente" style="rounded=0;whiteSpace=wrap;html=1;fontColor=light-dark(#000000,#CC0000);" parent="1" vertex="1">
          <mxGeometry x="460" y="120" width="100" height="50" as="geometry" />
        </mxCell>
        <mxCell id="NEHOAQ5_KmDinnT5eEiS-6" value="Fibra" style="rounded=1;whiteSpace=wrap;html=1;arcSize=50;" parent="1" vertex="1">
          <mxGeometry x="180" y="120" width="100" height="50" as="geometry" />
        </mxCell>
        <mxCell id="NEHOAQ5_KmDinnT5eEiS-7" value="Internet" style="rounded=1;whiteSpace=wrap;html=1;arcSize=50;" parent="1" vertex="1">
          <mxGeometry x="520" y="200" width="90" height="40" as="geometry" />
        </mxCell>
        <mxCell id="NEHOAQ5_KmDinnT5eEiS-8" value="TV" style="rounded=1;whiteSpace=wrap;html=1;arcSize=50;" parent="1" vertex="1">
          <mxGeometry x="520" y="270" width="90" height="40" as="geometry" />
        </mxCell>
        <mxCell id="NEHOAQ5_KmDinnT5eEiS-9" value="Telefone" style="rounded=1;whiteSpace=wrap;html=1;arcSize=50;" parent="1" vertex="1">
          <mxGeometry x="520" y="340" width="90" height="40" as="geometry" />
        </mxCell>
        <mxCell id="NEHOAQ5_KmDinnT5eEiS-12" value="" style="endArrow=classic;startArrow=classic;html=1;rounded=0;exitX=0.5;exitY=0;exitDx=0;exitDy=0;entryX=0.5;entryY=1;entryDx=0;entryDy=0;" parent="1" source="NEHOAQ5_KmDinnT5eEiS-3" target="NEHOAQ5_KmDinnT5eEiS-1" edge="1">
          <mxGeometry width="50" height="50" relative="1" as="geometry">
            <mxPoint x="410" y="240" as="sourcePoint" />
            <mxPoint x="82" y="90" as="targetPoint" />
          </mxGeometry>
        </mxCell>
        <mxCell id="NEHOAQ5_KmDinnT5eEiS-13" value="" style="endArrow=classic;startArrow=classic;html=1;rounded=0;entryX=1;entryY=0.5;entryDx=0;entryDy=0;exitX=0;exitY=0.5;exitDx=0;exitDy=0;" parent="1" source="NEHOAQ5_KmDinnT5eEiS-6" target="NEHOAQ5_KmDinnT5eEiS-3" edge="1">
          <mxGeometry width="50" height="50" relative="1" as="geometry">
            <mxPoint x="410" y="240" as="sourcePoint" />
            <mxPoint x="460" y="190" as="targetPoint" />
          </mxGeometry>
        </mxCell>
        <mxCell id="NEHOAQ5_KmDinnT5eEiS-14" value="" style="endArrow=classic;startArrow=classic;html=1;rounded=0;exitX=1;exitY=0.5;exitDx=0;exitDy=0;entryX=0;entryY=0.5;entryDx=0;entryDy=0;" parent="1" source="NEHOAQ5_KmDinnT5eEiS-6" target="NEHOAQ5_KmDinnT5eEiS-4" edge="1">
          <mxGeometry width="50" height="50" relative="1" as="geometry">
            <mxPoint x="410" y="240" as="sourcePoint" />
            <mxPoint x="460" y="190" as="targetPoint" />
          </mxGeometry>
        </mxCell>
        <mxCell id="NEHOAQ5_KmDinnT5eEiS-15" value="" style="endArrow=classic;startArrow=classic;html=1;rounded=0;entryX=0;entryY=0.5;entryDx=0;entryDy=0;exitX=1;exitY=0.5;exitDx=0;exitDy=0;" parent="1" source="NEHOAQ5_KmDinnT5eEiS-4" target="NEHOAQ5_KmDinnT5eEiS-5" edge="1">
          <mxGeometry width="50" height="50" relative="1" as="geometry">
            <mxPoint x="410" y="240" as="sourcePoint" />
            <mxPoint x="460" y="190" as="targetPoint" />
          </mxGeometry>
        </mxCell>
        <mxCell id="NEHOAQ5_KmDinnT5eEiS-17" value="" style="endArrow=classic;startArrow=classic;html=1;rounded=0;entryX=0;entryY=1;entryDx=0;entryDy=0;exitX=0;exitY=0.5;exitDx=0;exitDy=0;" parent="1" source="NEHOAQ5_KmDinnT5eEiS-7" edge="1">
          <mxGeometry width="50" height="50" relative="1" as="geometry">
            <mxPoint x="510" y="220" as="sourcePoint" />
            <mxPoint x="470" y="170" as="targetPoint" />
            <Array as="points">
              <mxPoint x="470" y="220" />
            </Array>
          </mxGeometry>
        </mxCell>
        <mxCell id="NEHOAQ5_KmDinnT5eEiS-18" value="" style="endArrow=classic;startArrow=classic;html=1;rounded=0;entryX=0.103;entryY=0.981;entryDx=0;entryDy=0;exitX=0;exitY=0.5;exitDx=0;exitDy=0;entryPerimeter=0;" parent="1" source="NEHOAQ5_KmDinnT5eEiS-8" target="NEHOAQ5_KmDinnT5eEiS-5" edge="1">
          <mxGeometry width="50" height="50" relative="1" as="geometry">
            <mxPoint x="530" y="230" as="sourcePoint" />
            <mxPoint x="480" y="180" as="targetPoint" />
            <Array as="points">
              <mxPoint x="470" y="290" />
            </Array>
          </mxGeometry>
        </mxCell>
        <mxCell id="NEHOAQ5_KmDinnT5eEiS-19" value="" style="endArrow=classic;startArrow=classic;html=1;rounded=0;entryX=0.103;entryY=0.981;entryDx=0;entryDy=0;exitX=0;exitY=0.5;exitDx=0;exitDy=0;entryPerimeter=0;" parent="1" source="NEHOAQ5_KmDinnT5eEiS-9" edge="1">
          <mxGeometry width="50" height="50" relative="1" as="geometry">
            <mxPoint x="520" y="291" as="sourcePoint" />
            <mxPoint x="470" y="170" as="targetPoint" />
            <Array as="points">
              <mxPoint x="470" y="360" />
            </Array>
          </mxGeometry>
        </mxCell>
      </root>
    </mxGraphModel>
  </diagram>
  <diagram id="uXraW5DoTlh-k1NojCk5" name="Página-2">
    <mxGraphModel dx="1044" dy="1731" grid="1" gridSize="10" guides="1" tooltips="1" connect="1" arrows="1" fold="1" page="1" pageScale="1" pageWidth="827" pageHeight="1169" math="0" shadow="0">
      <root>
        <mxCell id="0" />
        <mxCell id="1" parent="0" />
        <mxCell id="55OFeKVHQP0ORQiFnRzo-10" style="edgeStyle=orthogonalEdgeStyle;rounded=0;orthogonalLoop=1;jettySize=auto;html=1;" edge="1" parent="1" source="55OFeKVHQP0ORQiFnRzo-1">
          <mxGeometry relative="1" as="geometry">
            <mxPoint x="510" y="-910" as="targetPoint" />
          </mxGeometry>
        </mxCell>
        <mxCell id="55OFeKVHQP0ORQiFnRzo-12" style="edgeStyle=orthogonalEdgeStyle;rounded=0;orthogonalLoop=1;jettySize=auto;html=1;" edge="1" parent="1" source="55OFeKVHQP0ORQiFnRzo-1">
          <mxGeometry relative="1" as="geometry">
            <mxPoint x="310" y="-910" as="targetPoint" />
          </mxGeometry>
        </mxCell>
        <mxCell id="55OFeKVHQP0ORQiFnRzo-1" value="&lt;font style=&quot;color: light-dark(rgb(0, 0, 0), rgb(0, 255, 0));&quot;&gt;&lt;font style=&quot;&quot;&gt;MODELO &lt;/font&gt;OSI&lt;/font&gt;" style="rounded=0;whiteSpace=wrap;html=1;" vertex="1" parent="1">
          <mxGeometry x="264" y="-1150" width="300" height="60" as="geometry" />
        </mxCell>
        <mxCell id="55OFeKVHQP0ORQiFnRzo-4" value="Camadas que o GPON atua" style="text;html=1;align=center;verticalAlign=middle;resizable=0;points=[];autosize=1;strokeColor=none;fillColor=none;fontSize=13;fontColor=light-dark(#000000,#FFFF00);" vertex="1" parent="1">
          <mxGeometry x="170" y="-1050" width="190" height="30" as="geometry" />
        </mxCell>
        <mxCell id="55OFeKVHQP0ORQiFnRzo-13" value="Camada 01:&lt;div&gt;Física.&lt;/div&gt;&lt;div&gt;(Fibra Óptica)&lt;/div&gt;" style="shape=cube;whiteSpace=wrap;html=1;boundedLbl=1;backgroundOutline=1;darkOpacity=0.05;darkOpacity2=0.1;size=20;fontColor=light-dark(#000000,#0066CC);" vertex="1" parent="1">
          <mxGeometry x="270" y="-910" width="110" height="80" as="geometry" />
        </mxCell>
        <mxCell id="55OFeKVHQP0ORQiFnRzo-14" value="Camada 02:&lt;div&gt;Enlance de dados&lt;/div&gt;" style="shape=cube;whiteSpace=wrap;html=1;boundedLbl=1;backgroundOutline=1;darkOpacity=0.05;darkOpacity2=0.1;size=20;fontColor=light-dark(#000000,#0066CC);" vertex="1" parent="1">
          <mxGeometry x="454" y="-910" width="110" height="80" as="geometry" />
        </mxCell>
        <mxCell id="55OFeKVHQP0ORQiFnRzo-15" value="" style="endArrow=classic;html=1;rounded=0;exitX=0;exitY=0;exitDx=65;exitDy=80;exitPerimeter=0;" edge="1" parent="1">
          <mxGeometry width="50" height="50" relative="1" as="geometry">
            <mxPoint x="310" y="-830" as="sourcePoint" />
            <mxPoint x="310" y="-780" as="targetPoint" />
          </mxGeometry>
        </mxCell>
        <mxCell id="55OFeKVHQP0ORQiFnRzo-17" value="Protocolos" style="swimlane;fontStyle=0;childLayout=stackLayout;horizontal=1;startSize=30;horizontalStack=0;resizeParent=1;resizeParentMax=0;resizeLast=0;collapsible=1;marginBottom=0;whiteSpace=wrap;html=1;" vertex="1" parent="1">
          <mxGeometry x="264" y="-780" width="140" height="90" as="geometry" />
        </mxCell>
        <mxCell id="55OFeKVHQP0ORQiFnRzo-18" value="OMCI" style="text;strokeColor=none;fillColor=none;align=left;verticalAlign=middle;spacingLeft=4;spacingRight=4;overflow=hidden;points=[[0,0.5],[1,0.5]];portConstraint=eastwest;rotatable=0;whiteSpace=wrap;html=1;" vertex="1" parent="55OFeKVHQP0ORQiFnRzo-17">
          <mxGeometry y="30" width="140" height="30" as="geometry" />
        </mxCell>
        <mxCell id="55OFeKVHQP0ORQiFnRzo-19" value="GEM" style="text;strokeColor=none;fillColor=none;align=left;verticalAlign=middle;spacingLeft=4;spacingRight=4;overflow=hidden;points=[[0,0.5],[1,0.5]];portConstraint=eastwest;rotatable=0;whiteSpace=wrap;html=1;" vertex="1" parent="55OFeKVHQP0ORQiFnRzo-17">
          <mxGeometry y="60" width="140" height="30" as="geometry" />
        </mxCell>
      </root>
    </mxGraphModel>
  </diagram>
</mxfile>
